<?xml version="1.0" encoding="UTF-8"?><svg id="Layer_1" xmlns="http://www.w3.org/2000/svg" viewBox="0 0 92.86 164.03"><defs><style>.cls-1{fill:#e5d7cf;}.cls-2{fill:none;}.cls-3{fill:#fff;}</style></defs><line class="cls-2" x1="42.17" y1="55.82" x2="42.71" y2="56.47"/><path class="cls-1" d="M47.37,14.18s-.02.01-.03.01v-.05s.02,0,.02,0v.04Z"/><polygon class="cls-1" points="51.53 39.96 51.53 39.99 51.51 39.99 51.53 39.96"/><path class="cls-1" d="M47.37,14.18s-.02.01-.03.01v-.05s.02,0,.02,0v.04Z"/><polygon class="cls-1" points="5.1 52.13 5.09 52.15 5.09 52.13 5.1 52.13"/><polygon class="cls-1" points="6.12 52.13 6.12 52.17 6.1 52.13 6.12 52.13"/><polygon class="cls-1" points="15.47 52.11 15.47 52.15 15.45 52.11 15.47 52.11"/><path class="cls-1" d="M92.84,61.28l-1.19-1.46-1.19,1.46v.02s-.01,1.44-.01,1.44h-1.44v-7.47l-.68-.85-.68.85v-3.25l-.02-.04-.47-1.11-.47,1.11-.04.09v.66h-.29v-8.03l-.02-.07-3.25-10.52c1-.17,1.74-.79,1.74-1.53,0-.66-.59-1.23-1.44-1.46l-.82-6.85-.82,6.83c-.9.21-1.55.79-1.55,1.48s.72,1.34,1.7,1.52l-3.24,10.53-.03.07v8.03h-.27v-.68l-.02-.04-.48-1.14-.48,1.14-.03.06v3.2l-.68-.85-.68.85v7.47h-.62v-1.88s-1.54-1.89-1.54-1.89l-1.53,1.89v.02s-.01,24.88-.01,24.88h-2.33v-3.21h-3.35v3.21h-2.66v-3.21h-3.35v3.21h-2.49v-33.19s-1.28-1.99-1.28-1.99l-1.26,1.99v.02s0,1.95,0,1.95h-1.54v-10.12l-.72-1.16-.72,1.16v-4.43h.03l-.02-.04-.53-.99-.53.99v1.02h-.32v-10.89l-.02-.1-3.82-15.8s-.02.01-.03.01v-.05s.02,0,.02,0v.04c.9-.11,1.57-.76,1.57-1.54,0-.6-.39-1.12-.97-1.39l-.11-.7c.08-.01.18-.02.27-.04.86-.1.42-2.34.29-3.11-.07-.38-.07-.77,0-1.16.02-.08.04-.17.1-.24.23-.24.64.03.89.25.29.25.64.42,1.02.53.53.14,1.14-.32.78-.64-.84-.74-1.67-1.05-2.32-1.78-.41-.47-.74-.64-1.35-1.34-.31-.36-.04-.52.03-.94.06-.42-.21-.92-.65-1.07-.2-.07-.43-.05-.63.02-.58.2-.82.38-.84.92-.68-.26-1.35-.52-2.02-.79-.23-.1-.41-.21-.66-.36-.66-.38-.56-.3-.91-.8-.57.55-.34.59-.92.96-.22.14,1.01.18,1.46.38.49.21.99.49,1.4.83-.15.25-.2.59-.12.89.07.28.81.63,1.1.73.08.64-.02,1.55-.2,3.25-.12,1.13.92.94,1.29,2.04.17.49-.11.86-.08,1.37.29.06.53.1.75.12l-.1.59c-.7.23-1.19.8-1.19,1.48,0,.8.7,1.46,1.61,1.56l-3.82,15.78-.02.1v10.89h-.29v-.98h-.03s-.51-1-.51-1l-.51.99h0s-.02.01-.02.01v4.43l-.73-1.16-.72,1.16v10.12h-.65v-2.52l-.02-.03-1.62-2.55-1.62,2.55-.02.03v33.74h-3.48v-3.21h-3.36v3.21h-2.25v-3.21h-3.35v3.21h-3.12v-24.33h-.01s-1.2-1.48-1.2-1.48l-1.2,1.47h-.01v1.45h-1.45v-7.47l-.69-.86-.68.86v-3.25l-.02-.04-.49-.9-.49.9v.74h-.3v-8.04l-.02-.06-3.32-10.67c.93-.14,1.62-.69,1.62-1.35,0-.56-.51-1.04-1.23-1.26l-.86-7.2-.87,7.21c-.73.21-1.23.69-1.23,1.25,0,.62.62,1.15,1.47,1.32l-3.32,10.7-.02.06v8.04h-.27v-.68l-.02-.04-.5-.92-.5.92v.02s-.01,3.25-.01,3.25l-.68-.86-.69.86v7.47h-.62v-1.88s-1.55-1.89-1.55-1.89L0,60.99v.02s0,103.02,0,103.02h92.86V61.3l-.02-.02ZM10.01,148.8h-4.01v-7.29c0-1.06.87-1.92,1.93-1.92h.15c1.06,0,1.93.86,1.93,1.92v7.29ZM10.19,133.42h-4v-7.28c0-1.07.86-1.93,1.93-1.93h.15c1.06,0,1.92.86,1.92,1.93v7.28ZM10.19,118.88h-4v-7.29c0-1.06.86-1.92,1.93-1.92h.15c1.06,0,1.92.86,1.92,1.92v7.29ZM10.19,104.33h-4v-7.28c0-1.07.86-1.93,1.93-1.93h.15c1.06,0,1.92.86,1.92,1.93v7.28ZM10.19,89.79h-4v-7.29c0-1.06.86-1.92,1.93-1.92h.15c1.06,0,1.92.86,1.92,1.92v7.29ZM28.62,95.82c1.46,0,2.64,1.18,2.64,2.63s-1.18,2.63-2.64,2.63-2.63-1.17-2.63-2.63,1.18-2.63,2.63-2.63ZM30.63,109.07v7.29h-4.01v-7.29c0-1.06.86-1.92,1.93-1.92h.15c1.06,0,1.93.86,1.93,1.92ZM28.62,122.43c1.46,0,2.64,1.17,2.64,2.63s-1.18,2.63-2.64,2.63-2.63-1.18-2.63-2.63,1.18-2.63,2.63-2.63ZM31.61,145.23h-5.97v-10.87c0-1.58,1.29-2.87,2.87-2.87h.23c1.58,0,2.87,1.29,2.87,2.87v10.87ZM50.41,150.28h-6.49v-19.58c0-1.8,1.45-3.25,3.24-3.25.9,0,1.71.36,2.3.95.59.59.95,1.4.95,2.3v19.58ZM50.41,121.07h-6.49v-19.59c0-1.79,1.45-3.24,3.24-3.24.9,0,1.71.36,2.3.95.59.58.95,1.4.95,2.29v19.59ZM50.41,91.86h-6.49v-19.59c0-1.79,1.45-3.25,3.24-3.25.9,0,1.71.37,2.3.95.59.59.95,1.4.95,2.3v19.59ZM66.29,95.82c1.45,0,2.63,1.18,2.63,2.63s-1.18,2.63-2.63,2.63-2.63-1.17-2.63-2.63,1.18-2.63,2.63-2.63ZM68.29,109.07v7.29h-4v-7.29c0-1.06.86-1.92,1.92-1.92h.16c1.06,0,1.92.86,1.92,1.92ZM66.29,122.43c1.45,0,2.63,1.17,2.63,2.63s-1.18,2.63-2.63,2.63-2.63-1.18-2.63-2.63,1.18-2.63,2.63-2.63ZM69.27,145.23h-5.96v-10.87c0-1.58,1.28-2.87,2.87-2.87h.22c1.59,0,2.87,1.29,2.87,2.87v10.87ZM86.04,148.8h-4v-7.29c0-1.06.86-1.92,1.92-1.92h.15c1.07,0,1.93.86,1.93,1.92v7.29ZM86.23,133.42h-4.01v-7.28c0-1.07.87-1.93,1.93-1.93h.15c1.06,0,1.93.86,1.93,1.93v7.28ZM86.23,118.88h-4.01v-7.29c0-1.06.87-1.92,1.93-1.92h.15c1.06,0,1.93.86,1.93,1.92v7.29ZM86.23,104.33h-4.01v-7.28c0-1.07.87-1.93,1.93-1.93h.15c1.06,0,1.93.86,1.93,1.93v7.28ZM86.23,89.79h-4.01v-7.29c0-1.06.87-1.92,1.93-1.92h.15c1.06,0,1.93.86,1.93,1.92v7.29Z"/><polygon class="cls-1" points="77.38 52.01 77.35 52.07 77.35 52.01 77.38 52.01"/><polygon class="cls-1" points="78.36 52.01 78.36 52.05 78.34 52.01 78.36 52.01"/><polygon class="cls-1" points="86.65 51.98 86.69 51.98 86.65 52.07 86.65 51.98"/><polygon class="cls-1" points="87.65 51.98 87.65 52.02 87.63 51.98 87.65 51.98"/><polygon class="cls-1" points="78.37 52.07 78.36 52.07 78.36 52.05 78.37 52.07"/><polygon class="cls-1" points="87.67 52.07 87.65 52.07 87.65 52.02 87.67 52.07"/><polygon class="cls-1" points="5.09 52.15 5.09 52.17 5.08 52.17 5.09 52.15"/><polygon class="cls-1" points="14.47 52.11 14.47 52.17 14.44 52.17 14.47 52.11"/><polygon class="cls-1" points="15.48 52.17 15.47 52.17 15.47 52.15 15.48 52.17"/><path class="cls-3" d="M10.19,82.5v7.29h-4v-7.29c0-1.06.86-1.92,1.93-1.92h.15c1.06,0,1.92.86,1.92,1.92Z"/><path class="cls-3" d="M10.19,97.05v7.28h-4v-7.28c0-1.07.86-1.93,1.93-1.93h.15c1.06,0,1.92.86,1.92,1.93Z"/><path class="cls-3" d="M10.19,111.59v7.29h-4v-7.29c0-1.06.86-1.92,1.93-1.92h.15c1.06,0,1.92.86,1.92,1.92Z"/><path class="cls-3" d="M10.19,126.14v7.28h-4v-7.28c0-1.07.86-1.93,1.93-1.93h.15c1.06,0,1.92.86,1.92,1.93Z"/><path class="cls-3" d="M10.01,141.51v7.29h-4.01v-7.29c0-1.06.87-1.92,1.93-1.92h.15c1.06,0,1.93.86,1.93,1.92Z"/><path class="cls-3" d="M86.23,82.5v7.29h-4.01v-7.29c0-1.06.87-1.92,1.93-1.92h.15c1.06,0,1.93.86,1.93,1.92Z"/><path class="cls-3" d="M86.23,97.05v7.28h-4.01v-7.28c0-1.07.87-1.93,1.93-1.93h.15c1.06,0,1.93.86,1.93,1.93Z"/><path class="cls-3" d="M86.23,111.59v7.29h-4.01v-7.29c0-1.06.87-1.92,1.93-1.92h.15c1.06,0,1.93.86,1.93,1.92Z"/><path class="cls-3" d="M86.23,126.14v7.28h-4.01v-7.28c0-1.07.87-1.93,1.93-1.93h.15c1.06,0,1.93.86,1.93,1.93Z"/><path class="cls-3" d="M86.04,141.51v7.29h-4v-7.29c0-1.06.86-1.92,1.92-1.92h.15c1.07,0,1.93.86,1.93,1.92Z"/><path class="cls-3" d="M50.41,72.27v19.59h-6.49v-19.59c0-1.79,1.45-3.25,3.24-3.25.9,0,1.71.37,2.3.95.59.59.95,1.4.95,2.3Z"/><path class="cls-3" d="M50.41,101.48v19.59h-6.49v-19.59c0-1.79,1.45-3.24,3.24-3.24.9,0,1.71.36,2.3.95.59.58.95,1.4.95,2.29Z"/><path class="cls-3" d="M50.41,130.7v19.58h-6.49v-19.58c0-1.8,1.45-3.25,3.24-3.25.9,0,1.71.36,2.3.95.59.59.95,1.4.95,2.3Z"/><path class="cls-3" d="M30.63,109.07v7.29h-4.01v-7.29c0-1.06.86-1.92,1.93-1.92h.15c1.06,0,1.93.86,1.93,1.92Z"/><path class="cls-3" d="M31.61,134.36v10.87h-5.97v-10.87c0-1.58,1.29-2.87,2.87-2.87h.23c1.58,0,2.87,1.29,2.87,2.87Z"/><path class="cls-3" d="M31.26,98.45c0,1.46-1.18,2.63-2.64,2.63s-2.63-1.17-2.63-2.63,1.18-2.63,2.63-2.63,2.64,1.18,2.64,2.63Z"/><path class="cls-3" d="M31.26,125.06c0,1.45-1.18,2.63-2.64,2.63s-2.63-1.18-2.63-2.63,1.18-2.63,2.63-2.63,2.64,1.17,2.64,2.63Z"/><path class="cls-3" d="M68.29,109.07v7.29h-4v-7.29c0-1.06.86-1.92,1.92-1.92h.16c1.06,0,1.92.86,1.92,1.92Z"/><path class="cls-3" d="M69.27,134.36v10.87h-5.96v-10.87c0-1.58,1.28-2.87,2.87-2.87h.22c1.59,0,2.87,1.29,2.87,2.87Z"/><circle class="cls-3" cx="66.29" cy="98.45" r="2.63"/><circle class="cls-3" cx="66.29" cy="125.06" r="2.63"/></svg>